<svg xmlns="http://www.w3.org/2000/svg" version="1.1" xmlns:xlink="http://www.w3.org/1999/xlink" xmlns:svgjs="http://svgjs.dev/svgjs" width="1440" height="560" preserveAspectRatio="none" viewBox="0 0 1440 560"><g mask="url(&quot;#SvgjsMask1023&quot;)" fill="none"><path d="M1156.3975869705296 276.77669898242095L1316.1869445484363 296.3963650895815 1335.8066106555968 136.6070075116748 1176.0172530776902 116.98734140451427z" fill="rgba(28, 83, 142, 0.38)" class="triangle-float1"></path><path d="M861.6507268923708 201.94428442374866L938.0586549101563 234.37752562605485 948.5045527047229 103.54901299822347z" fill="rgba(28, 83, 142, 0.38)" class="triangle-float3"></path><path d="M-29.08604867798236-39.094029058696414L23.596895365799554 91.65946393595748 101.14689961671256-4.1068158027761115z" fill="rgba(28, 83, 142, 0.38)" class="triangle-float1"></path><path d="M641.055499630366 317.80909415992915L561.5833796529536 243.70014335364985 487.47442884667424 323.17226333106225 566.9465488240867 397.2812141373415z" fill="rgba(28, 83, 142, 0.38)" class="triangle-float3"></path><path d="M-2.761397027321241 285.91123321799336L75.2713627805561 369.5911231928327 158.95125275539547 291.5583633849554 80.91849294751813 207.87847341011602z" fill="rgba(28, 83, 142, 0.38)" class="triangle-float3"></path><path d="M987.212,394.864C1001.46,394.308,1012.508,383.898,1019.584,371.518C1026.595,359.251,1030.033,344.419,1023.072,332.124C1016.026,319.679,1001.509,314.666,987.212,314.337C972.2,313.992,956.277,317.638,948.375,330.406C940.129,343.73,942.058,360.808,950.144,374.229C957.966,387.212,972.067,395.455,987.212,394.864" fill="rgba(28, 83, 142, 0.38)" class="triangle-float2"></path><path d="M1313.7692433236625 110.73191738204794L1211.493071024531 73.50643499048252 1206.7929335867486 245.5334346349627z" fill="rgba(28, 83, 142, 0.38)" class="triangle-float2"></path><path d="M999.986,223.933C1025.729,225.838,1056.042,225.55,1069.25,203.372C1082.619,180.924,1069.985,153.017,1054.943,131.654C1042.38,113.812,1021.797,105.673,999.986,105.001C976.647,104.282,950.844,108.051,938.838,128.078C926.595,148.499,933.655,174.213,946.46,194.286C958.217,212.716,978.185,222.32,999.986,223.933" fill="rgba(28, 83, 142, 0.38)" class="triangle-float3"></path><path d="M1043.5360715782892 378.66891002898484L933.8379697428139 384.417943937747 939.5870036515762 494.1160457732223 1049.2851054870514 488.3670118644601z" fill="rgba(28, 83, 142, 0.38)" class="triangle-float3"></path><path d="M636.7599867017947 299.3923895606405L605.5485323434873 408.2396663030827 745.6072634442369 330.6038439189478z" fill="rgba(28, 83, 142, 0.38)" class="triangle-float2"></path><path d="M119.00693289981581 114.3215926719678L44.540337720162455 7.7562635532562965-5.278481860320852 109.89998072206706z" fill="rgba(28, 83, 142, 0.38)" class="triangle-float3"></path></g><defs><mask id="SvgjsMask1023"><rect width="1440" height="560" fill="#ffffff"></rect></mask><style>
                @keyframes float1 {
                    0%{transform: translate(0, 0)}
                    50%{transform: translate(-10px, 0)}
                    100%{transform: translate(0, 0)}
                }

                .triangle-float1 {
                    animation: float1 5s infinite;
                }

                @keyframes float2 {
                    0%{transform: translate(0, 0)}
                    50%{transform: translate(-5px, -5px)}
                    100%{transform: translate(0, 0)}
                }

                .triangle-float2 {
                    animation: float2 4s infinite;
                }

                @keyframes float3 {
                    0%{transform: translate(0, 0)}
                    50%{transform: translate(0, -10px)}
                    100%{transform: translate(0, 0)}
                }

                .triangle-float3 {
                    animation: float3 6s infinite;
                }
            </style></defs></svg>